# xmcd
#
# Track frame offsets:
# 150
# 14254
# 27596
# 45580
# 64668
# 84979
# 98304
# 112790
# 127430
# 142669
# 157937
# 173238
# 193318
# 209802
# 224006
# 237547
#
# Disc length: 3406 seconds
#
#
# Revision: 0
# Processed by: cddbd v1.5.2PL0 Copyright (c) Steve Scherf et al.
# Submitted via: FreeRIP 2.951 
#
DISCID=e20d4c10
DTITLE=Dave Earl - Sidewalk Boogie
DYEAR=2008
DGENRE=Blues
TTITLE0=Lonesome Whistle Blues
TTITLE1=Back to the Delta
TTITLE2=Sidewalk Boogie
TTITLE3=Out in the Cold
TTITLE4=Jam Packed
TTITLE5=That Old Tyme Blues Feelin'
TTITLE6=We Gotta Go
TTITLE7=Cat's Cradle
TTITLE8=Just to be with You
TTITLE9=Big Boss man
TTITLE10=Last Night at the Savoy
TTITLE11=Street Boogie
TTITLE12=St. Louis Blues
TTITLE13=Let the Good Times Roll!
TTITLE14=Walkin' through the Park
TTITLE15=Amazing Grace
EXTD=
EXTT0=
EXTT1=
EXTT2=
EXTT3=
EXTT4=
EXTT5=
EXTT6=
EXTT7=
EXTT8=
EXTT9=
EXTT10=
EXTT11=
EXTT12=
EXTT13=
EXTT14=
EXTT15=
PLAYORDER=
